<svg width="25" height="25" viewBox="0 0 25 25" fill="none" xmlns="http://www.w3.org/2000/svg">
<mask id="mask0_156276_4590" style="mask-type:alpha" maskUnits="userSpaceOnUse" x="0" y="0" width="25" height="25">
<rect x="25" y="1.09279e-06" width="25" height="25" transform="rotate(90 25 1.09279e-06)" fill="#D9D9D9"/>
</mask>
<g mask="url(#mask0_156276_4590)">
<path d="M9.01058 12.4997C9.01058 12.3608 9.03662 12.2264 9.08871 12.0965C9.14079 11.966 9.21023 11.8573 9.29704 11.7705L14.0887 6.97884C14.2797 6.78787 14.5227 6.69238 14.8179 6.69238C15.113 6.69238 15.3561 6.78787 15.547 6.97884C15.738 7.16981 15.8335 7.41287 15.8335 7.70801C15.8335 8.00315 15.738 8.2462 15.547 8.43718L11.4845 12.4997L15.547 16.5622C15.738 16.7531 15.8335 16.9962 15.8335 17.2913C15.8335 17.5865 15.738 17.8295 15.547 18.0205C15.3561 18.2115 15.113 18.307 14.8179 18.307C14.5227 18.307 14.2797 18.2115 14.0887 18.0205L9.29704 13.2288C9.19287 13.1247 9.11926 13.0118 9.07621 12.8903C9.03246 12.7688 9.01058 12.6386 9.01058 12.4997Z" fill="black"/>
</g>
</svg>
