<svg width="14" height="14" viewBox="0 0 14 14" fill="none" xmlns="http://www.w3.org/2000/svg">
<path d="M2.90564 13.3333C2.64175 13.3333 2.42647 13.2292 2.2598 13.0208C2.09314 12.8125 2.04453 12.5833 2.11397 12.3333L2.6973 10H0.843137C0.56536 10 0.343137 9.8925 0.176471 9.6775C0.00980388 9.46194 -0.0388072 9.22222 0.0306373 8.95833C0.0723039 8.76389 0.169526 8.61111 0.322304 8.5C0.475082 8.38889 0.648693 8.33333 0.843137 8.33333H3.11397L3.9473 5H1.67647C1.39869 5 1.17647 4.8925 1.0098 4.6775C0.843137 4.46194 0.794526 4.22222 0.863971 3.95833C0.905637 3.76389 1.00286 3.61111 1.15564 3.5C1.30842 3.38889 1.48203 3.33333 1.67647 3.33333H4.36397L5.05147 0.604167C5.09314 0.423611 5.18341 0.277778 5.3223 0.166666C5.46119 0.0555554 5.62786 0 5.8223 0C6.08619 0 6.30147 0.104167 6.46814 0.3125C6.6348 0.520833 6.68341 0.75 6.61397 1L6.03064 3.33333H9.36397L10.0515 0.604167C10.0931 0.423611 10.1834 0.277778 10.3223 0.166666C10.4612 0.0555554 10.6279 0 10.8223 0C11.0862 0 11.3015 0.104167 11.4681 0.3125C11.6348 0.520833 11.6834 0.75 11.614 1L11.0306 3.33333H12.8848C13.1626 3.33333 13.3848 3.44083 13.5515 3.65583C13.7181 3.87139 13.7667 4.11111 13.6973 4.375C13.6556 4.56944 13.5584 4.72222 13.4056 4.83333C13.2529 4.94444 13.0792 5 12.8848 5H10.614L9.78064 8.33333H12.0515C12.3292 8.33333 12.5515 8.44083 12.7181 8.65583C12.8848 8.87139 12.9334 9.11111 12.864 9.375C12.8223 9.56944 12.7251 9.72222 12.5723 9.83333C12.4195 9.94444 12.2459 10 12.0515 10H9.36397L8.67647 12.7292C8.6348 12.9097 8.54453 13.0556 8.40564 13.1667C8.26675 13.2778 8.10008 13.3333 7.90564 13.3333C7.64175 13.3333 7.42647 13.2292 7.2598 13.0208C7.09314 12.8125 7.04453 12.5833 7.11397 12.3333L7.6973 10H4.36397L3.67647 12.7292C3.6348 12.9097 3.54453 13.0556 3.40564 13.1667C3.26675 13.2778 3.10008 13.3333 2.90564 13.3333ZM4.78064 8.33333H8.11397L8.9473 5H5.61397L4.78064 8.33333Z" fill="#535AF1"/>
</svg>
